<mxfile host="app.diagrams.net" modified="2023-08-08T02:47:44.247Z" agent="Mozilla/5.0 (Macintosh; Intel Mac OS X 10_15_7) AppleWebKit/537.36 (KHTML, like Gecko) Chrome/115.0.0.0 Safari/537.36" etag="BwBg--6AFSR7c84x-Gdr" version="21.6.6" type="device">
  <diagram name="Page-1" id="YiGBLgbUU6KooF7kutLV">
    <mxGraphModel dx="948" dy="629" grid="1" gridSize="10" guides="1" tooltips="1" connect="1" arrows="1" fold="1" page="1" pageScale="1" pageWidth="850" pageHeight="1100" math="0" shadow="0">
      <root>
        <mxCell id="0" />
        <mxCell id="1" parent="0" />
        <mxCell id="cSHidEq8I-4zgQu132l3-20" value="" style="edgeStyle=orthogonalEdgeStyle;rounded=0;orthogonalLoop=1;jettySize=auto;html=1;" parent="1" source="cSHidEq8I-4zgQu132l3-18" target="cSHidEq8I-4zgQu132l3-19" edge="1">
          <mxGeometry relative="1" as="geometry" />
        </mxCell>
        <mxCell id="cSHidEq8I-4zgQu132l3-18" value="Actor" style="shape=umlActor;verticalLabelPosition=bottom;verticalAlign=top;html=1;outlineConnect=0;" parent="1" vertex="1">
          <mxGeometry x="60" y="40" width="30" height="60" as="geometry" />
        </mxCell>
        <mxCell id="3W0sg-xtgX3kewQ81AHj-2" value="" style="edgeStyle=orthogonalEdgeStyle;rounded=0;orthogonalLoop=1;jettySize=auto;html=1;" edge="1" parent="1" source="cSHidEq8I-4zgQu132l3-19" target="3W0sg-xtgX3kewQ81AHj-1">
          <mxGeometry relative="1" as="geometry" />
        </mxCell>
        <mxCell id="cSHidEq8I-4zgQu132l3-19" value="&lt;div style=&quot;&quot;&gt;&lt;span style=&quot;background-color: initial;&quot;&gt;Registry&lt;/span&gt;&lt;/div&gt;" style="rounded=1;whiteSpace=wrap;html=1;verticalAlign=top;align=center;" parent="1" vertex="1">
          <mxGeometry x="170" y="55" width="80" height="30" as="geometry" />
        </mxCell>
        <mxCell id="3W0sg-xtgX3kewQ81AHj-1" value="unique username with password and display_name" style="whiteSpace=wrap;html=1;verticalAlign=top;rounded=1;" vertex="1" parent="1">
          <mxGeometry x="310" y="40" width="120" height="60" as="geometry" />
        </mxCell>
        <mxCell id="3W0sg-xtgX3kewQ81AHj-7" value="" style="edgeStyle=orthogonalEdgeStyle;rounded=0;orthogonalLoop=1;jettySize=auto;html=1;" edge="1" parent="1" source="3W0sg-xtgX3kewQ81AHj-3">
          <mxGeometry relative="1" as="geometry">
            <mxPoint x="145" y="190" as="targetPoint" />
          </mxGeometry>
        </mxCell>
        <mxCell id="3W0sg-xtgX3kewQ81AHj-3" value="Actor" style="shape=umlActor;verticalLabelPosition=bottom;verticalAlign=top;html=1;outlineConnect=0;" vertex="1" parent="1">
          <mxGeometry x="60" y="160" width="30" height="60" as="geometry" />
        </mxCell>
        <mxCell id="3W0sg-xtgX3kewQ81AHj-10" value="" style="edgeStyle=orthogonalEdgeStyle;rounded=0;orthogonalLoop=1;jettySize=auto;html=1;" edge="1" parent="1" source="3W0sg-xtgX3kewQ81AHj-8" target="3W0sg-xtgX3kewQ81AHj-9">
          <mxGeometry relative="1" as="geometry" />
        </mxCell>
        <mxCell id="3W0sg-xtgX3kewQ81AHj-13" value="" style="edgeStyle=orthogonalEdgeStyle;rounded=0;orthogonalLoop=1;jettySize=auto;html=1;" edge="1" parent="1" source="3W0sg-xtgX3kewQ81AHj-8" target="3W0sg-xtgX3kewQ81AHj-12">
          <mxGeometry relative="1" as="geometry" />
        </mxCell>
        <mxCell id="3W0sg-xtgX3kewQ81AHj-8" value="Login" style="rhombus;whiteSpace=wrap;html=1;" vertex="1" parent="1">
          <mxGeometry x="150" y="150" width="80" height="80" as="geometry" />
        </mxCell>
        <mxCell id="3W0sg-xtgX3kewQ81AHj-9" value="ReLogin" style="rounded=1;whiteSpace=wrap;html=1;" vertex="1" parent="1">
          <mxGeometry x="340" y="160" width="120" height="60" as="geometry" />
        </mxCell>
        <mxCell id="3W0sg-xtgX3kewQ81AHj-11" value="Fail" style="text;html=1;strokeColor=none;fillColor=none;align=center;verticalAlign=middle;whiteSpace=wrap;rounded=0;" vertex="1" parent="1">
          <mxGeometry x="250" y="150" width="60" height="30" as="geometry" />
        </mxCell>
        <mxCell id="3W0sg-xtgX3kewQ81AHj-16" value="" style="edgeStyle=orthogonalEdgeStyle;rounded=0;orthogonalLoop=1;jettySize=auto;html=1;" edge="1" parent="1" source="3W0sg-xtgX3kewQ81AHj-12" target="3W0sg-xtgX3kewQ81AHj-15">
          <mxGeometry relative="1" as="geometry" />
        </mxCell>
        <mxCell id="3W0sg-xtgX3kewQ81AHj-12" value="store access_token" style="whiteSpace=wrap;html=1;" vertex="1" parent="1">
          <mxGeometry x="130" y="320" width="120" height="60" as="geometry" />
        </mxCell>
        <mxCell id="3W0sg-xtgX3kewQ81AHj-14" value="Success" style="text;html=1;strokeColor=none;fillColor=none;align=center;verticalAlign=middle;whiteSpace=wrap;rounded=0;" vertex="1" parent="1">
          <mxGeometry x="190" y="250" width="60" height="30" as="geometry" />
        </mxCell>
        <mxCell id="3W0sg-xtgX3kewQ81AHj-15" value="getUserInfo" style="rounded=1;whiteSpace=wrap;html=1;" vertex="1" parent="1">
          <mxGeometry x="390" y="320" width="120" height="60" as="geometry" />
        </mxCell>
        <mxCell id="3W0sg-xtgX3kewQ81AHj-17" value="Header with AccessToken" style="text;html=1;strokeColor=none;fillColor=none;align=center;verticalAlign=middle;whiteSpace=wrap;rounded=0;" vertex="1" parent="1">
          <mxGeometry x="290" y="310" width="60" height="30" as="geometry" />
        </mxCell>
        <mxCell id="3W0sg-xtgX3kewQ81AHj-22" value="" style="edgeStyle=orthogonalEdgeStyle;rounded=0;orthogonalLoop=1;jettySize=auto;html=1;" edge="1" parent="1" source="3W0sg-xtgX3kewQ81AHj-20">
          <mxGeometry relative="1" as="geometry">
            <mxPoint x="210" y="500" as="targetPoint" />
          </mxGeometry>
        </mxCell>
        <mxCell id="3W0sg-xtgX3kewQ81AHj-20" value="Actor" style="shape=umlActor;verticalLabelPosition=bottom;verticalAlign=top;html=1;outlineConnect=0;" vertex="1" parent="1">
          <mxGeometry x="60" y="470" width="30" height="60" as="geometry" />
        </mxCell>
        <mxCell id="3W0sg-xtgX3kewQ81AHj-23" value="getAllUsers / getUserById/&lt;br&gt;updateUserScope" style="rounded=1;whiteSpace=wrap;html=1;" vertex="1" parent="1">
          <mxGeometry x="220" y="470" width="120" height="60" as="geometry" />
        </mxCell>
        <mxCell id="3W0sg-xtgX3kewQ81AHj-32" value="User with $admin$ or $user$" style="text;html=1;strokeColor=none;fillColor=none;align=center;verticalAlign=middle;whiteSpace=wrap;rounded=0;" vertex="1" parent="1">
          <mxGeometry x="20" y="430" width="135" height="30" as="geometry" />
        </mxCell>
        <mxCell id="3W0sg-xtgX3kewQ81AHj-36" value="" style="edgeStyle=orthogonalEdgeStyle;rounded=0;orthogonalLoop=1;jettySize=auto;html=1;" edge="1" parent="1" source="3W0sg-xtgX3kewQ81AHj-37">
          <mxGeometry relative="1" as="geometry">
            <mxPoint x="210" y="670" as="targetPoint" />
          </mxGeometry>
        </mxCell>
        <mxCell id="3W0sg-xtgX3kewQ81AHj-37" value="Actor" style="shape=umlActor;verticalLabelPosition=bottom;verticalAlign=top;html=1;outlineConnect=0;" vertex="1" parent="1">
          <mxGeometry x="60" y="640" width="30" height="60" as="geometry" />
        </mxCell>
        <mxCell id="3W0sg-xtgX3kewQ81AHj-38" value="getAllScopes / updateScope" style="rounded=1;whiteSpace=wrap;html=1;" vertex="1" parent="1">
          <mxGeometry x="220" y="640" width="120" height="60" as="geometry" />
        </mxCell>
        <mxCell id="3W0sg-xtgX3kewQ81AHj-39" value="User with $admin$ or $scope$" style="text;html=1;strokeColor=none;fillColor=none;align=center;verticalAlign=middle;whiteSpace=wrap;rounded=0;" vertex="1" parent="1">
          <mxGeometry x="20" y="600" width="135" height="30" as="geometry" />
        </mxCell>
      </root>
    </mxGraphModel>
  </diagram>
</mxfile>
